<svg id="mermaid-8b7b105c-2de1-4328-89f5-da88124c4447" width="2769.5" xmlns="http://www.w3.org/2000/svg" style="max-width: 2789.5px;" viewBox="-40 -40 2769.5 1396" role="graphics-document document" aria-roledescription="sequence" xmlns:xlink="http://www.w3.org/1999/xlink" height="1396"><rect x="-40" y="-40" width="2769.5" height="1396" fill="#ffffff"/><g><rect x="2388" y="1251" fill="#eaeaea" stroke="#666" width="157" height="65" name="DB" rx="3" ry="3" class="actor actor-bottom"/><text x="2466.5" y="1283.5" style="text-anchor: middle; font-size: 16px; font-weight: 400;" dominant-baseline="central" alignment-baseline="central" class="actor actor-box"><tspan x="2466.5" dy="0">Database (MySQL)</tspan></text></g><g><rect x="1991.5" y="1251" fill="#eaeaea" stroke="#666" width="222" height="65" name="Booking" rx="3" ry="3" class="actor actor-bottom"/><text x="2102.5" y="1283.5" style="text-anchor: middle; font-size: 16px; font-weight: 400;" dominant-baseline="central" alignment-baseline="central" class="actor actor-box"><tspan x="2102.5" dy="0">domain/booking (Consumer)</tspan></text></g><g><rect x="1704.5" y="1251" fill="#eaeaea" stroke="#666" width="150" height="65" name="MQ" rx="3" ry="3" class="actor actor-bottom"/><text x="1779.5" y="1283.5" style="text-anchor: middle; font-size: 16px; font-weight: 400;" dominant-baseline="central" alignment-baseline="central" class="actor actor-box"><tspan x="1779.5" dy="0">RabbitMQ</tspan></text></g><g><rect x="1332.5" y="1251" fill="#eaeaea" stroke="#666" width="150" height="65" name="Seat" rx="3" ry="3" class="actor actor-bottom"/><text x="1407.5" y="1283.5" style="text-anchor: middle; font-size: 16px; font-weight: 400;" dominant-baseline="central" alignment-baseline="central" class="actor actor-box"><tspan x="1407.5" dy="0">domain/seat</tspan></text></g><g><rect x="1123.5" y="1251" fill="#eaeaea" stroke="#666" width="159" height="65" name="Schedule" rx="3" ry="3" class="actor actor-bottom"/><text x="1203" y="1283.5" style="text-anchor: middle; font-size: 16px; font-weight: 400;" dominant-baseline="central" alignment-baseline="central" class="actor actor-box"><tspan x="1203" dy="0">Scheduler (Worker)</tspan></text></g><g><rect x="772" y="1251" fill="#eaeaea" stroke="#666" width="150" height="65" name="Redis" rx="3" ry="3" class="actor actor-bottom"/><text x="847" y="1283.5" style="text-anchor: middle; font-size: 16px; font-weight: 400;" dominant-baseline="central" alignment-baseline="central" class="actor actor-box"><tspan x="847" dy="0">Redis (ZSet/Lua)</tspan></text></g><g><rect x="552" y="1251" fill="#eaeaea" stroke="#666" width="150" height="65" name="Queue" rx="3" ry="3" class="actor actor-bottom"/><text x="627" y="1283.5" style="text-anchor: middle; font-size: 16px; font-weight: 400;" dominant-baseline="central" alignment-baseline="central" class="actor actor-box"><tspan x="627" dy="0">domain/queue</tspan></text></g><g><rect x="352" y="1251" fill="#eaeaea" stroke="#666" width="150" height="65" name="SSE" rx="3" ry="3" class="actor actor-bottom"/><text x="427" y="1283.5" style="text-anchor: middle; font-size: 16px; font-weight: 400;" dominant-baseline="central" alignment-baseline="central" class="actor actor-box"><tspan x="427" dy="0">global/sse</tspan></text></g><g><rect x="0" y="1251" fill="#eaeaea" stroke="#666" width="150" height="65" name="User" rx="3" ry="3" class="actor actor-bottom"/><text x="75" y="1283.5" style="text-anchor: middle; font-size: 16px; font-weight: 400;" dominant-baseline="central" alignment-baseline="central" class="actor actor-box"><tspan x="75" dy="0">유저 (Client)</tspan></text></g><g><line id="actor71" x1="2466.5" y1="65" x2="2466.5" y2="1251" class="actor-line 200" stroke-width="0.5px" stroke="#999" name="DB"/><g id="root-71"><rect x="2388" y="0" fill="#eaeaea" stroke="#666" width="157" height="65" name="DB" rx="3" ry="3" class="actor actor-top"/><text x="2466.5" y="32.5" style="text-anchor: middle; font-size: 16px; font-weight: 400;" dominant-baseline="central" alignment-baseline="central" class="actor actor-box"><tspan x="2466.5" dy="0">Database (MySQL)</tspan></text></g></g><g><line id="actor70" x1="2102.5" y1="65" x2="2102.5" y2="1251" class="actor-line 200" stroke-width="0.5px" stroke="#999" name="Booking"/><g id="root-70"><rect x="1991.5" y="0" fill="#eaeaea" stroke="#666" width="222" height="65" name="Booking" rx="3" ry="3" class="actor actor-top"/><text x="2102.5" y="32.5" style="text-anchor: middle; font-size: 16px; font-weight: 400;" dominant-baseline="central" alignment-baseline="central" class="actor actor-box"><tspan x="2102.5" dy="0">domain/booking (Consumer)</tspan></text></g></g><g><line id="actor69" x1="1779.5" y1="65" x2="1779.5" y2="1251" class="actor-line 200" stroke-width="0.5px" stroke="#999" name="MQ"/><g id="root-69"><rect x="1704.5" y="0" fill="#eaeaea" stroke="#666" width="150" height="65" name="MQ" rx="3" ry="3" class="actor actor-top"/><text x="1779.5" y="32.5" style="text-anchor: middle; font-size: 16px; font-weight: 400;" dominant-baseline="central" alignment-baseline="central" class="actor actor-box"><tspan x="1779.5" dy="0">RabbitMQ</tspan></text></g></g><g><line id="actor68" x1="1407.5" y1="65" x2="1407.5" y2="1251" class="actor-line 200" stroke-width="0.5px" stroke="#999" name="Seat"/><g id="root-68"><rect x="1332.5" y="0" fill="#eaeaea" stroke="#666" width="150" height="65" name="Seat" rx="3" ry="3" class="actor actor-top"/><text x="1407.5" y="32.5" style="text-anchor: middle; font-size: 16px; font-weight: 400;" dominant-baseline="central" alignment-baseline="central" class="actor actor-box"><tspan x="1407.5" dy="0">domain/seat</tspan></text></g></g><g><line id="actor67" x1="1203" y1="65" x2="1203" y2="1251" class="actor-line 200" stroke-width="0.5px" stroke="#999" name="Schedule"/><g id="root-67"><rect x="1123.5" y="0" fill="#eaeaea" stroke="#666" width="159" height="65" name="Schedule" rx="3" ry="3" class="actor actor-top"/><text x="1203" y="32.5" style="text-anchor: middle; font-size: 16px; font-weight: 400;" dominant-baseline="central" alignment-baseline="central" class="actor actor-box"><tspan x="1203" dy="0">Scheduler (Worker)</tspan></text></g></g><g><line id="actor66" x1="847" y1="65" x2="847" y2="1251" class="actor-line 200" stroke-width="0.5px" stroke="#999" name="Redis"/><g id="root-66"><rect x="772" y="0" fill="#eaeaea" stroke="#666" width="150" height="65" name="Redis" rx="3" ry="3" class="actor actor-top"/><text x="847" y="32.5" style="text-anchor: middle; font-size: 16px; font-weight: 400;" dominant-baseline="central" alignment-baseline="central" class="actor actor-box"><tspan x="847" dy="0">Redis (ZSet/Lua)</tspan></text></g></g><g><line id="actor65" x1="627" y1="65" x2="627" y2="1251" class="actor-line 200" stroke-width="0.5px" stroke="#999" name="Queue"/><g id="root-65"><rect x="552" y="0" fill="#eaeaea" stroke="#666" width="150" height="65" name="Queue" rx="3" ry="3" class="actor actor-top"/><text x="627" y="32.5" style="text-anchor: middle; font-size: 16px; font-weight: 400;" dominant-baseline="central" alignment-baseline="central" class="actor actor-box"><tspan x="627" dy="0">domain/queue</tspan></text></g></g><g><line id="actor64" x1="427" y1="65" x2="427" y2="1251" class="actor-line 200" stroke-width="0.5px" stroke="#999" name="SSE"/><g id="root-64"><rect x="352" y="0" fill="#eaeaea" stroke="#666" width="150" height="65" name="SSE" rx="3" ry="3" class="actor actor-top"/><text x="427" y="32.5" style="text-anchor: middle; font-size: 16px; font-weight: 400;" dominant-baseline="central" alignment-baseline="central" class="actor actor-box"><tspan x="427" dy="0">global/sse</tspan></text></g></g><g><line id="actor63" x1="75" y1="65" x2="75" y2="1251" class="actor-line 200" stroke-width="0.5px" stroke="#999" name="User"/><g id="root-63"><rect x="0" y="0" fill="#eaeaea" stroke="#666" width="150" height="65" name="User" rx="3" ry="3" class="actor actor-top"/><text x="75" y="32.5" style="text-anchor: middle; font-size: 16px; font-weight: 400;" dominant-baseline="central" alignment-baseline="central" class="actor actor-box"><tspan x="75" dy="0">유저 (Client)</tspan></text></g></g><style>#mermaid-8b7b105c-2de1-4328-89f5-da88124c4447{font-family:ui-sans-serif,-apple-system,BlinkMacSystemFont,"Segoe UI Variable Display","Segoe UI",Helvetica,"Apple Color Emoji","Noto Sans Arabic","Noto Sans Hebrew",Arial,sans-serif,"Segoe UI Emoji","Segoe UI Symbol";font-size:16px;fill:#000000;}@keyframes edge-animation-frame{from{stroke-dashoffset:0;}}@keyframes dash{to{stroke-dashoffset:0;}}#mermaid-8b7b105c-2de1-4328-89f5-da88124c4447 .edge-animation-slow{stroke-dasharray:9,5!important;stroke-dashoffset:900;animation:dash 50s linear infinite;stroke-linecap:round;}#mermaid-8b7b105c-2de1-4328-89f5-da88124c4447 .edge-animation-fast{stroke-dasharray:9,5!important;stroke-dashoffset:900;animation:dash 20s linear infinite;stroke-linecap:round;}#mermaid-8b7b105c-2de1-4328-89f5-da88124c4447 .error-icon{fill:#552222;}#mermaid-8b7b105c-2de1-4328-89f5-da88124c4447 .error-text{fill:#552222;stroke:#552222;}#mermaid-8b7b105c-2de1-4328-89f5-da88124c4447 .edge-thickness-normal{stroke-width:1px;}#mermaid-8b7b105c-2de1-4328-89f5-da88124c4447 .edge-thickness-thick{stroke-width:3.5px;}#mermaid-8b7b105c-2de1-4328-89f5-da88124c4447 .edge-pattern-solid{stroke-dasharray:0;}#mermaid-8b7b105c-2de1-4328-89f5-da88124c4447 .edge-thickness-invisible{stroke-width:0;fill:none;}#mermaid-8b7b105c-2de1-4328-89f5-da88124c4447 .edge-pattern-dashed{stroke-dasharray:3;}#mermaid-8b7b105c-2de1-4328-89f5-da88124c4447 .edge-pattern-dotted{stroke-dasharray:2;}#mermaid-8b7b105c-2de1-4328-89f5-da88124c4447 .marker{fill:#666;stroke:#666;}#mermaid-8b7b105c-2de1-4328-89f5-da88124c4447 .marker.cross{stroke:#666;}#mermaid-8b7b105c-2de1-4328-89f5-da88124c4447 svg{font-family:ui-sans-serif,-apple-system,BlinkMacSystemFont,"Segoe UI Variable Display","Segoe UI",Helvetica,"Apple Color Emoji","Noto Sans Arabic","Noto Sans Hebrew",Arial,sans-serif,"Segoe UI Emoji","Segoe UI Symbol";font-size:16px;}#mermaid-8b7b105c-2de1-4328-89f5-da88124c4447 p{margin:0;}#mermaid-8b7b105c-2de1-4328-89f5-da88124c4447 .actor{stroke:hsl(0, 0%, 83%);fill:#eee;}#mermaid-8b7b105c-2de1-4328-89f5-da88124c4447 text.actor&gt;tspan{fill:#333;stroke:none;}#mermaid-8b7b105c-2de1-4328-89f5-da88124c4447 .actor-line{stroke:hsl(0, 0%, 83%);}#mermaid-8b7b105c-2de1-4328-89f5-da88124c4447 .messageLine0{stroke-width:1.5;stroke-dasharray:none;stroke:#333;}#mermaid-8b7b105c-2de1-4328-89f5-da88124c4447 .messageLine1{stroke-width:1.5;stroke-dasharray:2,2;stroke:#333;}#mermaid-8b7b105c-2de1-4328-89f5-da88124c4447 #arrowhead path{fill:#333;stroke:#333;}#mermaid-8b7b105c-2de1-4328-89f5-da88124c4447 .sequenceNumber{fill:white;}#mermaid-8b7b105c-2de1-4328-89f5-da88124c4447 #sequencenumber{fill:#333;}#mermaid-8b7b105c-2de1-4328-89f5-da88124c4447 #crosshead path{fill:#333;stroke:#333;}#mermaid-8b7b105c-2de1-4328-89f5-da88124c4447 .messageText{fill:#333;stroke:none;}#mermaid-8b7b105c-2de1-4328-89f5-da88124c4447 .labelBox{stroke:hsl(0, 0%, 83%);fill:#eee;}#mermaid-8b7b105c-2de1-4328-89f5-da88124c4447 .labelText,#mermaid-8b7b105c-2de1-4328-89f5-da88124c4447 .labelText&gt;tspan{fill:#333;stroke:none;}#mermaid-8b7b105c-2de1-4328-89f5-da88124c4447 .loopText,#mermaid-8b7b105c-2de1-4328-89f5-da88124c4447 .loopText&gt;tspan{fill:#333;stroke:none;}#mermaid-8b7b105c-2de1-4328-89f5-da88124c4447 .loopLine{stroke-width:2px;stroke-dasharray:2,2;stroke:hsl(0, 0%, 83%);fill:hsl(0, 0%, 83%);}#mermaid-8b7b105c-2de1-4328-89f5-da88124c4447 .note{stroke:#999;fill:#666;}#mermaid-8b7b105c-2de1-4328-89f5-da88124c4447 .noteText,#mermaid-8b7b105c-2de1-4328-89f5-da88124c4447 .noteText&gt;tspan{fill:#fff;stroke:none;}#mermaid-8b7b105c-2de1-4328-89f5-da88124c4447 .activation0{fill:#f4f4f4;stroke:#666;}#mermaid-8b7b105c-2de1-4328-89f5-da88124c4447 .activation1{fill:#f4f4f4;stroke:#666;}#mermaid-8b7b105c-2de1-4328-89f5-da88124c4447 .activation2{fill:#f4f4f4;stroke:#666;}#mermaid-8b7b105c-2de1-4328-89f5-da88124c4447 .actorPopupMenu{position:absolute;}#mermaid-8b7b105c-2de1-4328-89f5-da88124c4447 .actorPopupMenuPanel{position:absolute;fill:#eee;box-shadow:0px 8px 16px 0px rgba(0,0,0,0.2);filter:drop-shadow(3px 5px 2px rgb(0 0 0 / 0.4));}#mermaid-8b7b105c-2de1-4328-89f5-da88124c4447 .actor-man line{stroke:hsl(0, 0%, 83%);fill:#eee;}#mermaid-8b7b105c-2de1-4328-89f5-da88124c4447 .actor-man circle,#mermaid-8b7b105c-2de1-4328-89f5-da88124c4447 line{stroke:hsl(0, 0%, 83%);fill:#eee;stroke-width:2px;}#mermaid-8b7b105c-2de1-4328-89f5-da88124c4447 :root{--mermaid-font-family:"trebuchet ms",verdana,arial,sans-serif;}</style><g/><defs><symbol id="computer" width="24" height="24"><path transform="scale(.5)" d="M2 2v13h20v-13h-20zm18 11h-16v-9h16v9zm-10.228 6l.466-1h3.524l.467 1h-4.457zm14.228 3h-24l2-6h2.104l-1.33 4h18.45l-1.297-4h2.073l2 6zm-5-10h-14v-7h14v7z"/></symbol></defs><defs><symbol id="database" fill-rule="evenodd" clip-rule="evenodd"><path transform="scale(.5)" d="M12.258.001l.256.004.255.005.253.008.251.01.249.012.247.015.246.016.242.019.241.02.239.023.236.024.233.027.231.028.229.031.225.032.223.034.22.036.217.038.214.04.211.041.208.043.205.045.201.046.198.048.194.05.191.051.187.053.183.054.18.056.175.057.172.059.168.06.163.061.16.063.155.064.15.066.074.033.073.033.071.034.07.034.069.035.068.035.067.035.066.035.064.036.064.036.062.036.06.036.06.037.058.037.058.037.055.038.055.038.053.038.052.038.051.039.05.039.048.039.047.039.045.04.044.04.043.04.041.04.04.041.039.041.037.041.036.041.034.041.033.042.032.042.03.042.029.042.027.042.026.043.024.043.023.043.021.043.02.043.018.044.017.043.015.044.013.044.012.044.011.045.009.044.007.045.006.045.004.045.002.045.001.045v17l-.001.045-.002.045-.004.045-.006.045-.007.045-.009.044-.011.045-.012.044-.013.044-.015.044-.017.043-.018.044-.02.043-.021.043-.023.043-.024.043-.026.043-.027.042-.029.042-.03.042-.032.042-.033.042-.034.041-.036.041-.037.041-.039.041-.04.041-.041.04-.043.04-.044.04-.045.04-.047.039-.048.039-.05.039-.051.039-.052.038-.053.038-.055.038-.055.038-.058.037-.058.037-.06.037-.06.036-.062.036-.064.036-.064.036-.066.035-.067.035-.068.035-.069.035-.07.034-.071.034-.073.033-.074.033-.15.066-.155.064-.16.063-.163.061-.168.06-.172.059-.175.057-.18.056-.183.054-.187.053-.191.051-.194.05-.198.048-.201.046-.205.045-.208.043-.211.041-.214.04-.217.038-.22.036-.223.034-.225.032-.229.031-.231.028-.233.027-.236.024-.239.023-.241.02-.242.019-.246.016-.247.015-.249.012-.251.01-.253.008-.255.005-.256.004-.258.001-.258-.001-.256-.004-.255-.005-.253-.008-.251-.01-.249-.012-.247-.015-.245-.016-.243-.019-.241-.02-.238-.023-.236-.024-.234-.027-.231-.028-.228-.031-.226-.032-.223-.034-.22-.036-.217-.038-.214-.04-.211-.041-.208-.043-.204-.045-.201-.046-.198-.048-.195-.05-.19-.051-.187-.053-.184-.054-.179-.056-.176-.057-.172-.059-.167-.06-.164-.061-.159-.063-.155-.064-.151-.066-.074-.033-.072-.033-.072-.034-.07-.034-.069-.035-.068-.035-.067-.035-.066-.035-.064-.036-.063-.036-.062-.036-.061-.036-.06-.037-.058-.037-.057-.037-.056-.038-.055-.038-.053-.038-.052-.038-.051-.039-.049-.039-.049-.039-.046-.039-.046-.04-.044-.04-.043-.04-.041-.04-.04-.041-.039-.041-.037-.041-.036-.041-.034-.041-.033-.042-.032-.042-.03-.042-.029-.042-.027-.042-.026-.043-.024-.043-.023-.043-.021-.043-.02-.043-.018-.044-.017-.043-.015-.044-.013-.044-.012-.044-.011-.045-.009-.044-.007-.045-.006-.045-.004-.045-.002-.045-.001-.045v-17l.001-.045.002-.045.004-.045.006-.045.007-.045.009-.044.011-.045.012-.044.013-.044.015-.044.017-.043.018-.044.02-.043.021-.043.023-.043.024-.043.026-.043.027-.042.029-.042.03-.042.032-.042.033-.042.034-.041.036-.041.037-.041.039-.041.04-.041.041-.04.043-.04.044-.04.046-.04.046-.039.049-.039.049-.039.051-.039.052-.038.053-.038.055-.038.056-.038.057-.037.058-.037.06-.037.061-.036.062-.036.063-.036.064-.036.066-.035.067-.035.068-.035.069-.035.07-.034.072-.034.072-.033.074-.033.151-.066.155-.064.159-.063.164-.061.167-.06.172-.059.176-.057.179-.056.184-.054.187-.053.19-.051.195-.05.198-.048.201-.046.204-.045.208-.043.211-.041.214-.04.217-.038.22-.036.223-.034.226-.032.228-.031.231-.028.234-.027.236-.024.238-.023.241-.02.243-.019.245-.016.247-.015.249-.012.251-.01.253-.008.255-.005.256-.004.258-.001.258.001zm-9.258 20.499v.01l.001.021.003.021.004.022.005.021.006.022.007.022.009.023.01.022.011.023.012.023.013.023.015.023.016.024.017.023.018.024.019.024.021.024.022.025.023.024.024.025.052.049.056.05.061.051.066.051.07.051.075.051.079.052.084.052.088.052.092.052.097.052.102.051.105.052.11.052.114.051.119.051.123.051.127.05.131.05.135.05.139.048.144.049.147.047.152.047.155.047.16.045.163.045.167.043.171.043.176.041.178.041.183.039.187.039.19.037.194.035.197.035.202.033.204.031.209.03.212.029.216.027.219.025.222.024.226.021.23.02.233.018.236.016.24.015.243.012.246.01.249.008.253.005.256.004.259.001.26-.001.257-.004.254-.005.25-.008.247-.011.244-.012.241-.014.237-.016.233-.018.231-.021.226-.021.224-.024.22-.026.216-.027.212-.028.21-.031.205-.031.202-.034.198-.034.194-.036.191-.037.187-.039.183-.04.179-.04.175-.042.172-.043.168-.044.163-.045.16-.046.155-.046.152-.047.148-.048.143-.049.139-.049.136-.05.131-.05.126-.05.123-.051.118-.052.114-.051.11-.052.106-.052.101-.052.096-.052.092-.052.088-.053.083-.051.079-.052.074-.052.07-.051.065-.051.06-.051.056-.05.051-.05.023-.024.023-.025.021-.024.02-.024.019-.024.018-.024.017-.024.015-.023.014-.024.013-.023.012-.023.01-.023.01-.022.008-.022.006-.022.006-.022.004-.022.004-.021.001-.021.001-.021v-4.127l-.077.055-.08.053-.083.054-.085.053-.087.052-.09.052-.093.051-.095.05-.097.05-.1.049-.102.049-.105.048-.106.047-.109.047-.111.046-.114.045-.115.045-.118.044-.12.043-.122.042-.124.042-.126.041-.128.04-.13.04-.132.038-.134.038-.135.037-.138.037-.139.035-.142.035-.143.034-.144.033-.147.032-.148.031-.15.03-.151.03-.153.029-.154.027-.156.027-.158.026-.159.025-.161.024-.162.023-.163.022-.165.021-.166.02-.167.019-.169.018-.169.017-.171.016-.173.015-.173.014-.175.013-.175.012-.177.011-.178.01-.179.008-.179.008-.181.006-.182.005-.182.004-.184.003-.184.002h-.37l-.184-.002-.184-.003-.182-.004-.182-.005-.181-.006-.179-.008-.179-.008-.178-.01-.176-.011-.176-.012-.175-.013-.173-.014-.172-.015-.171-.016-.17-.017-.169-.018-.167-.019-.166-.02-.165-.021-.163-.022-.162-.023-.161-.024-.159-.025-.157-.026-.156-.027-.155-.027-.153-.029-.151-.03-.15-.03-.148-.031-.146-.032-.145-.033-.143-.034-.141-.035-.14-.035-.137-.037-.136-.037-.134-.038-.132-.038-.13-.04-.128-.04-.126-.041-.124-.042-.122-.042-.12-.044-.117-.043-.116-.045-.113-.045-.112-.046-.109-.047-.106-.047-.105-.048-.102-.049-.1-.049-.097-.05-.095-.05-.093-.052-.09-.051-.087-.052-.085-.053-.083-.054-.08-.054-.077-.054v4.127zm0-5.654v.011l.001.021.003.021.004.021.005.022.006.022.007.022.009.022.01.022.011.023.012.023.013.023.015.024.016.023.017.024.018.024.019.024.021.024.022.024.023.025.024.024.052.05.056.05.061.05.066.051.07.051.075.052.079.051.084.052.088.052.092.052.097.052.102.052.105.052.11.051.114.051.119.052.123.05.127.051.131.05.135.049.139.049.144.048.147.048.152.047.155.046.16.045.163.045.167.044.171.042.176.042.178.04.183.04.187.038.19.037.194.036.197.034.202.033.204.032.209.03.212.028.216.027.219.025.222.024.226.022.23.02.233.018.236.016.24.014.243.012.246.01.249.008.253.006.256.003.259.001.26-.001.257-.003.254-.006.25-.008.247-.01.244-.012.241-.015.237-.016.233-.018.231-.02.226-.022.224-.024.22-.025.216-.027.212-.029.21-.03.205-.032.202-.033.198-.035.194-.036.191-.037.187-.039.183-.039.179-.041.175-.042.172-.043.168-.044.163-.045.16-.045.155-.047.152-.047.148-.048.143-.048.139-.05.136-.049.131-.05.126-.051.123-.051.118-.051.114-.052.11-.052.106-.052.101-.052.096-.052.092-.052.088-.052.083-.052.079-.052.074-.051.07-.052.065-.051.06-.05.056-.051.051-.049.023-.025.023-.024.021-.025.02-.024.019-.024.018-.024.017-.024.015-.023.014-.023.013-.024.012-.022.01-.023.01-.023.008-.022.006-.022.006-.022.004-.021.004-.022.001-.021.001-.021v-4.139l-.077.054-.08.054-.083.054-.085.052-.087.053-.09.051-.093.051-.095.051-.097.05-.1.049-.102.049-.105.048-.106.047-.109.047-.111.046-.114.045-.115.044-.118.044-.12.044-.122.042-.124.042-.126.041-.128.04-.13.039-.132.039-.134.038-.135.037-.138.036-.139.036-.142.035-.143.033-.144.033-.147.033-.148.031-.15.03-.151.03-.153.028-.154.028-.156.027-.158.026-.159.025-.161.024-.162.023-.163.022-.165.021-.166.02-.167.019-.169.018-.169.017-.171.016-.173.015-.173.014-.175.013-.175.012-.177.011-.178.009-.179.009-.179.007-.181.007-.182.005-.182.004-.184.003-.184.002h-.37l-.184-.002-.184-.003-.182-.004-.182-.005-.181-.007-.179-.007-.179-.009-.178-.009-.176-.011-.176-.012-.175-.013-.173-.014-.172-.015-.171-.016-.17-.017-.169-.018-.167-.019-.166-.02-.165-.021-.163-.022-.162-.023-.161-.024-.159-.025-.157-.026-.156-.027-.155-.028-.153-.028-.151-.03-.15-.03-.148-.031-.146-.033-.145-.033-.143-.033-.141-.035-.14-.036-.137-.036-.136-.037-.134-.038-.132-.039-.13-.039-.128-.04-.126-.041-.124-.042-.122-.043-.12-.043-.117-.044-.116-.044-.113-.046-.112-.046-.109-.046-.106-.047-.105-.048-.102-.049-.1-.049-.097-.05-.095-.051-.093-.051-.09-.051-.087-.053-.085-.052-.083-.054-.08-.054-.077-.054v4.139zm0-5.666v.011l.001.02.003.022.004.021.005.022.006.021.007.022.009.023.01.022.011.023.012.023.013.023.015.023.016.024.017.024.018.023.019.024.021.025.022.024.023.024.024.025.052.05.056.05.061.05.066.051.07.051.075.052.079.051.084.052.088.052.092.052.097.052.102.052.105.051.11.052.114.051.119.051.123.051.127.05.131.05.135.05.139.049.144.048.147.048.152.047.155.046.16.045.163.045.167.043.171.043.176.042.178.04.183.04.187.038.19.037.194.036.197.034.202.033.204.032.209.03.212.028.216.027.219.025.222.024.226.021.23.02.233.018.236.017.24.014.243.012.246.01.249.008.253.006.256.003.259.001.26-.001.257-.003.254-.006.25-.008.247-.01.244-.013.241-.014.237-.016.233-.018.231-.02.226-.022.224-.024.22-.025.216-.027.212-.029.21-.03.205-.032.202-.033.198-.035.194-.036.191-.037.187-.039.183-.039.179-.041.175-.042.172-.043.168-.044.163-.045.16-.045.155-.047.152-.047.148-.048.143-.049.139-.049.136-.049.131-.051.126-.05.123-.051.118-.052.114-.051.11-.052.106-.052.101-.052.096-.052.092-.052.088-.052.083-.052.079-.052.074-.052.07-.051.065-.051.06-.051.056-.05.051-.049.023-.025.023-.025.021-.024.02-.024.019-.024.018-.024.017-.024.015-.023.014-.024.013-.023.012-.023.01-.022.01-.023.008-.022.006-.022.006-.022.004-.022.004-.021.001-.021.001-.021v-4.153l-.077.054-.08.054-.083.053-.085.053-.087.053-.09.051-.093.051-.095.051-.097.05-.1.049-.102.048-.105.048-.106.048-.109.046-.111.046-.114.046-.115.044-.118.044-.12.043-.122.043-.124.042-.126.041-.128.04-.13.039-.132.039-.134.038-.135.037-.138.036-.139.036-.142.034-.143.034-.144.033-.147.032-.148.032-.15.03-.151.03-.153.028-.154.028-.156.027-.158.026-.159.024-.161.024-.162.023-.163.023-.165.021-.166.02-.167.019-.169.018-.169.017-.171.016-.173.015-.173.014-.175.013-.175.012-.177.01-.178.01-.179.009-.179.007-.181.006-.182.006-.182.004-.184.003-.184.001-.185.001-.185-.001-.184-.001-.184-.003-.182-.004-.182-.006-.181-.006-.179-.007-.179-.009-.178-.01-.176-.01-.176-.012-.175-.013-.173-.014-.172-.015-.171-.016-.17-.017-.169-.018-.167-.019-.166-.02-.165-.021-.163-.023-.162-.023-.161-.024-.159-.024-.157-.026-.156-.027-.155-.028-.153-.028-.151-.03-.15-.03-.148-.032-.146-.032-.145-.033-.143-.034-.141-.034-.14-.036-.137-.036-.136-.037-.134-.038-.132-.039-.13-.039-.128-.041-.126-.041-.124-.041-.122-.043-.12-.043-.117-.044-.116-.044-.113-.046-.112-.046-.109-.046-.106-.048-.105-.048-.102-.048-.1-.05-.097-.049-.095-.051-.093-.051-.09-.052-.087-.052-.085-.053-.083-.053-.08-.054-.077-.054v4.153zm8.74-8.179l-.257.004-.254.005-.25.008-.247.011-.244.012-.241.014-.237.016-.233.018-.231.021-.226.022-.224.023-.22.026-.216.027-.212.028-.21.031-.205.032-.202.033-.198.034-.194.036-.191.038-.187.038-.183.04-.179.041-.175.042-.172.043-.168.043-.163.045-.16.046-.155.046-.152.048-.148.048-.143.048-.139.049-.136.05-.131.05-.126.051-.123.051-.118.051-.114.052-.11.052-.106.052-.101.052-.096.052-.092.052-.088.052-.083.052-.079.052-.074.051-.07.052-.065.051-.06.05-.056.05-.051.05-.023.025-.023.024-.021.024-.02.025-.019.024-.018.024-.017.023-.015.024-.014.023-.013.023-.012.023-.01.023-.01.022-.008.022-.006.023-.006.021-.004.022-.004.021-.001.021-.001.021.001.021.001.021.004.021.004.022.006.021.006.023.008.022.01.022.01.023.012.023.013.023.014.023.015.024.017.023.018.024.019.024.02.025.021.024.023.024.023.025.051.05.056.05.06.05.065.051.07.052.074.051.079.052.083.052.088.052.092.052.096.052.101.052.106.052.11.052.114.052.118.051.123.051.126.051.131.05.136.05.139.049.143.048.148.048.152.048.155.046.16.046.163.045.168.043.172.043.175.042.179.041.183.04.187.038.191.038.194.036.198.034.202.033.205.032.21.031.212.028.216.027.22.026.224.023.226.022.231.021.233.018.237.016.241.014.244.012.247.011.25.008.254.005.257.004.26.001.26-.001.257-.004.254-.005.25-.008.247-.011.244-.012.241-.014.237-.016.233-.018.231-.021.226-.022.224-.023.22-.026.216-.027.212-.028.21-.031.205-.032.202-.033.198-.034.194-.036.191-.038.187-.038.183-.04.179-.041.175-.042.172-.043.168-.043.163-.045.16-.046.155-.046.152-.048.148-.048.143-.048.139-.049.136-.05.131-.05.126-.051.123-.051.118-.051.114-.052.11-.052.106-.052.101-.052.096-.052.092-.052.088-.052.083-.052.079-.052.074-.051.07-.052.065-.051.06-.05.056-.05.051-.05.023-.025.023-.024.021-.024.02-.025.019-.024.018-.024.017-.023.015-.024.014-.023.013-.023.012-.023.01-.023.01-.022.008-.022.006-.023.006-.021.004-.022.004-.021.001-.021.001-.021-.001-.021-.001-.021-.004-.021-.004-.022-.006-.021-.006-.023-.008-.022-.01-.022-.01-.023-.012-.023-.013-.023-.014-.023-.015-.024-.017-.023-.018-.024-.019-.024-.02-.025-.021-.024-.023-.024-.023-.025-.051-.05-.056-.05-.06-.05-.065-.051-.07-.052-.074-.051-.079-.052-.083-.052-.088-.052-.092-.052-.096-.052-.101-.052-.106-.052-.11-.052-.114-.052-.118-.051-.123-.051-.126-.051-.131-.05-.136-.05-.139-.049-.143-.048-.148-.048-.152-.048-.155-.046-.16-.046-.163-.045-.168-.043-.172-.043-.175-.042-.179-.041-.183-.04-.187-.038-.191-.038-.194-.036-.198-.034-.202-.033-.205-.032-.21-.031-.212-.028-.216-.027-.22-.026-.224-.023-.226-.022-.231-.021-.233-.018-.237-.016-.241-.014-.244-.012-.247-.011-.25-.008-.254-.005-.257-.004-.26-.001-.26.001z"/></symbol></defs><defs><symbol id="clock" width="24" height="24"><path transform="scale(.5)" d="M12 2c5.514 0 10 4.486 10 10s-4.486 10-10 10-10-4.486-10-10 4.486-10 10-10zm0-2c-6.627 0-12 5.373-12 12s5.373 12 12 12 12-5.373 12-12-5.373-12-12-12zm5.848 12.459c.202.038.202.333.001.372-1.907.361-6.045 1.111-6.547 1.111-.719 0-1.301-.582-1.301-1.301 0-.512.77-5.447 1.125-7.445.034-.192.312-.181.343.014l.985 6.238 5.394 1.011z"/></symbol></defs><defs><marker id="arrowhead" refX="7.9" refY="5" markerUnits="userSpaceOnUse" markerWidth="12" markerHeight="12" orient="auto-start-reverse"><path d="M -1 0 L 10 5 L 0 10 z"/></marker></defs><defs><marker id="crosshead" markerWidth="15" markerHeight="8" orient="auto" refX="4" refY="4.5"><path fill="none" stroke="#000000" stroke-width="1pt" d="M 1,2 L 6,7 M 6,2 L 1,7" style="stroke-dasharray: 0, 0;"/></marker></defs><defs><marker id="filled-head" refX="15.5" refY="7" markerWidth="20" markerHeight="28" orient="auto"><path d="M 18,7 L9,13 L14,7 L9,1 Z"/></marker></defs><defs><marker id="sequencenumber" refX="15" refY="15" markerWidth="60" markerHeight="40" orient="auto"><circle cx="15" cy="15" r="6"/></marker></defs><g><rect x="50" y="75" fill="#EDF2AE" stroke="#666" width="402" height="39" class="note"/><text x="251" y="80" text-anchor="middle" dominant-baseline="middle" alignment-baseline="middle" style="font-size: 16px; font-weight: 400;" class="noteText" dy="1em"><tspan x="251">[1단계] 실시간 알림 채널 확보</tspan></text></g><g><rect x="50" y="220" fill="#EDF2AE" stroke="#666" width="822" height="39" class="note"/><text x="461" y="225" text-anchor="middle" dominant-baseline="middle" alignment-baseline="middle" style="font-size: 16px; font-weight: 400;" class="noteText" dy="1em"><tspan x="461">[2단계] 대기열 진입 및 스케줄링</tspan></text></g><g><line x1="64" y1="365" x2="1214" y2="365" class="loopLine"/><line x1="1214" y1="365" x2="1214" y2="554" class="loopLine"/><line x1="64" y1="554" x2="1214" y2="554" class="loopLine"/><line x1="64" y1="365" x2="64" y2="554" class="loopLine"/><polygon points="64,365 114,365 114,378 105.6,385 64,385" class="labelBox"/><text x="89" y="378" text-anchor="middle" dominant-baseline="middle" alignment-baseline="middle" style="font-size: 16px; font-weight: 400;" class="labelText">loop</text><text x="664" y="383" text-anchor="middle" style="font-size: 16px; font-weight: 400;" class="loopText"><tspan x="664">[주기적 스케줄링 (입장 제어)]</tspan></text></g><g><rect x="50" y="564" fill="#EDF2AE" stroke="#666" width="1382.5" height="39" class="note"/><text x="741" y="569" text-anchor="middle" dominant-baseline="middle" alignment-baseline="middle" style="font-size: 16px; font-weight: 400;" class="noteText" dy="1em"><tspan x="741">[3단계] 원자적 좌석 선점 (Redis)</tspan></text></g><g><rect x="872" y="709" fill="#EDF2AE" stroke="#666" width="306" height="39" class="note"/><text x="1025" y="714" text-anchor="middle" dominant-baseline="middle" alignment-baseline="middle" style="font-size: 16px; font-weight: 400;" class="noteText" dy="1em"><tspan x="1025">Redis 내부에서 원자적 처리 (중복 예약 방지)</tspan></text></g><g><rect x="1382.5" y="806" fill="#EDF2AE" stroke="#666" width="1109" height="39" class="note"/><text x="1937" y="811" text-anchor="middle" dominant-baseline="middle" alignment-baseline="middle" style="font-size: 16px; font-weight: 400;" class="noteText" dy="1em"><tspan x="1937">[4단계] 비동기 주문 생성 (Write Behind)</tspan></text></g><g><rect x="1754.5" y="951" fill="#EDF2AE" stroke="#666" width="737" height="39" class="note"/><text x="2123" y="956" text-anchor="middle" dominant-baseline="middle" alignment-baseline="middle" style="font-size: 16px; font-weight: 400;" class="noteText" dy="1em"><tspan x="2123">[5단계] 최종 데이터 확정 (DB 저장)</tspan></text></g><g><rect x="2491.5" y="1096" fill="#EDF2AE" stroke="#666" width="198" height="39" class="note"/><text x="2591" y="1101" text-anchor="middle" dominant-baseline="middle" alignment-baseline="middle" style="font-size: 16px; font-weight: 400;" class="noteText" dy="1em"><tspan x="2591">실제 DB 트랜잭션 수행 단계</tspan></text></g><text x="250" y="129" text-anchor="middle" dominant-baseline="middle" alignment-baseline="middle" style="font-size: 16px; font-weight: 400;" class="messageText" dy="1em">1. SSE 연결 요청</text><line x1="76" y1="162" x2="423" y2="162" class="messageLine0" stroke-width="2" stroke="none" marker-end="url(#arrowhead)" marker-start="url(#sequencenumber)" style="fill: none;"/><text x="76" y="166" font-family="sans-serif" font-size="12px" text-anchor="middle" class="sequenceNumber">1</text><text x="253" y="177" text-anchor="middle" dominant-baseline="middle" alignment-baseline="middle" style="font-size: 16px; font-weight: 400;" class="messageText" dy="1em">2. 연결 완료 (Emitter 확보)</text><line x1="426" y1="210" x2="79" y2="210" class="messageLine1" stroke-width="2" stroke="none" style="stroke-dasharray: 3, 3; fill: none;" marker-end="url(#arrowhead)" marker-start="url(#sequencenumber)"/><text x="426" y="214" font-family="sans-serif" font-size="12px" text-anchor="middle" class="sequenceNumber">2</text><text x="350" y="274" text-anchor="middle" dominant-baseline="middle" alignment-baseline="middle" style="font-size: 16px; font-weight: 400;" class="messageText" dy="1em">3. 입장 요청</text><line x1="76" y1="307" x2="623" y2="307" class="messageLine0" stroke-width="2" stroke="none" marker-end="url(#arrowhead)" marker-start="url(#sequencenumber)" style="fill: none;"/><text x="76" y="311" font-family="sans-serif" font-size="12px" text-anchor="middle" class="sequenceNumber">3</text><text x="736" y="322" text-anchor="middle" dominant-baseline="middle" alignment-baseline="middle" style="font-size: 16px; font-weight: 400;" class="messageText" dy="1em">4. 대기열 등록 (ZADD)</text><line x1="628" y1="355" x2="843" y2="355" class="messageLine0" stroke-width="2" stroke="none" marker-end="url(#arrowhead)" marker-start="url(#sequencenumber)" style="fill: none;"/><text x="628" y="359" font-family="sans-serif" font-size="12px" text-anchor="middle" class="sequenceNumber">4</text><text x="1027" y="415" text-anchor="middle" dominant-baseline="middle" alignment-baseline="middle" style="font-size: 16px; font-weight: 400;" class="messageText" dy="1em">5. 순번 조회 및 입장 대상 선별</text><line x1="1202" y1="448" x2="851" y2="448" class="messageLine0" stroke-width="2" stroke="none" marker-end="url(#arrowhead)" marker-start="url(#sequencenumber)" style="fill: none;"/><text x="1202" y="452" font-family="sans-serif" font-size="12px" text-anchor="middle" class="sequenceNumber">5</text><text x="817" y="463" text-anchor="middle" dominant-baseline="middle" alignment-baseline="middle" style="font-size: 16px; font-weight: 400;" class="messageText" dy="1em">6. 실시간 순번 Push 또는 입장 승인 통보</text><line x1="1202" y1="496" x2="431" y2="496" class="messageLine0" stroke-width="2" stroke="none" marker-end="url(#arrowhead)" marker-start="url(#sequencenumber)" style="fill: none;"/><text x="1202" y="500" font-family="sans-serif" font-size="12px" text-anchor="middle" class="sequenceNumber">6</text><text x="253" y="511" text-anchor="middle" dominant-baseline="middle" alignment-baseline="middle" style="font-size: 16px; font-weight: 400;" class="messageText" dy="1em">7. "지금 예매 가능합니다" (Event)</text><line x1="426" y1="544" x2="79" y2="544" class="messageLine1" stroke-width="2" stroke="none" style="stroke-dasharray: 3, 3; fill: none;" marker-end="url(#arrowhead)" marker-start="url(#sequencenumber)"/><text x="426" y="548" font-family="sans-serif" font-size="12px" text-anchor="middle" class="sequenceNumber">7</text><text x="740" y="618" text-anchor="middle" dominant-baseline="middle" alignment-baseline="middle" style="font-size: 16px; font-weight: 400;" class="messageText" dy="1em">8. 좌석 선택 및 예약 요청</text><line x1="76" y1="651" x2="1403.5" y2="651" class="messageLine0" stroke-width="2" stroke="none" marker-end="url(#arrowhead)" marker-start="url(#sequencenumber)" style="fill: none;"/><text x="76" y="655" font-family="sans-serif" font-size="12px" text-anchor="middle" class="sequenceNumber">8</text><text x="1129" y="666" text-anchor="middle" dominant-baseline="middle" alignment-baseline="middle" style="font-size: 16px; font-weight: 400;" class="messageText" dy="1em">9. 재고 차감 실행 (Lua Script)</text><line x1="1406.5" y1="699" x2="851" y2="699" class="messageLine0" stroke-width="2" stroke="none" marker-end="url(#arrowhead)" marker-start="url(#sequencenumber)" style="fill: none;"/><text x="1406.5" y="703" font-family="sans-serif" font-size="12px" text-anchor="middle" class="sequenceNumber">9</text><text x="1126" y="763" text-anchor="middle" dominant-baseline="middle" alignment-baseline="middle" style="font-size: 16px; font-weight: 400;" class="messageText" dy="1em">10. 선점 성공 반환 (Success)</text><line x1="848" y1="796" x2="1403.5" y2="796" class="messageLine1" stroke-width="2" stroke="none" style="stroke-dasharray: 3, 3; fill: none;" marker-end="url(#arrowhead)" marker-start="url(#sequencenumber)"/><text x="848" y="800" font-family="sans-serif" font-size="12px" text-anchor="middle" class="sequenceNumber">10</text><text x="1592" y="860" text-anchor="middle" dominant-baseline="middle" alignment-baseline="middle" style="font-size: 16px; font-weight: 400;" class="messageText" dy="1em">11. 예약 생성 이벤트 발행 (Message Publish)</text><line x1="1408.5" y1="893" x2="1775.5" y2="893" class="messageLine0" stroke-width="2" stroke="none" marker-end="url(#arrowhead)" marker-start="url(#sequencenumber)" style="fill: none;"/><text x="1408.5" y="897" font-family="sans-serif" font-size="12px" text-anchor="middle" class="sequenceNumber">11</text><text x="743" y="908" text-anchor="middle" dominant-baseline="middle" alignment-baseline="middle" style="font-size: 16px; font-weight: 400;" class="messageText" dy="1em">12. "예약이 접수되었습니다. (처리 중)" 응답</text><line x1="1406.5" y1="941" x2="79" y2="941" class="messageLine1" stroke-width="2" stroke="none" style="stroke-dasharray: 3, 3; fill: none;" marker-end="url(#arrowhead)" marker-start="url(#sequencenumber)"/><text x="1406.5" y="945" font-family="sans-serif" font-size="12px" text-anchor="middle" class="sequenceNumber">12</text><text x="1940" y="1005" text-anchor="middle" dominant-baseline="middle" alignment-baseline="middle" style="font-size: 16px; font-weight: 400;" class="messageText" dy="1em">13. 메시지 소비 (Message Consume)</text><line x1="1780.5" y1="1038" x2="2098.5" y2="1038" class="messageLine0" stroke-width="2" stroke="none" marker-end="url(#arrowhead)" marker-start="url(#sequencenumber)" style="fill: none;"/><text x="1780.5" y="1042" font-family="sans-serif" font-size="12px" text-anchor="middle" class="sequenceNumber">13</text><text x="2283" y="1053" text-anchor="middle" dominant-baseline="middle" alignment-baseline="middle" style="font-size: 16px; font-weight: 400;" class="messageText" dy="1em">14. 예약/결제 정보 저장 (INSERT/UPDATE)</text><line x1="2103.5" y1="1086" x2="2462.5" y2="1086" class="messageLine0" stroke-width="2" stroke="none" marker-end="url(#arrowhead)" marker-start="url(#sequencenumber)" style="fill: none;"/><text x="2103.5" y="1090" font-family="sans-serif" font-size="12px" text-anchor="middle" class="sequenceNumber">14</text><text x="1266" y="1150" text-anchor="middle" dominant-baseline="middle" alignment-baseline="middle" style="font-size: 16px; font-weight: 400;" class="messageText" dy="1em">15. 최종 예약 완료 통보</text><line x1="2101.5" y1="1183" x2="431" y2="1183" class="messageLine1" stroke-width="2" stroke="none" style="stroke-dasharray: 3, 3; fill: none;" marker-end="url(#arrowhead)" marker-start="url(#sequencenumber)"/><text x="2101.5" y="1187" font-family="sans-serif" font-size="12px" text-anchor="middle" class="sequenceNumber">15</text><text x="253" y="1198" text-anchor="middle" dominant-baseline="middle" alignment-baseline="middle" style="font-size: 16px; font-weight: 400;" class="messageText" dy="1em">16. "예약 완료! 마이페이지에서 확인하세요."</text><line x1="426" y1="1231" x2="79" y2="1231" class="messageLine1" stroke-width="2" stroke="none" style="stroke-dasharray: 3, 3; fill: none;" marker-end="url(#arrowhead)" marker-start="url(#sequencenumber)"/><text x="426" y="1235" font-family="sans-serif" font-size="12px" text-anchor="middle" class="sequenceNumber">16</text></svg>